<?xml version="1.0" encoding="UTF-8" standalone="no"?>
<!DOCTYPE svg PUBLIC "-//W3C//DTD SVG 1.1//EN" "http://www.w3.org/Graphics/SVG/1.1/DTD/svg11.dtd">
<svg xmlns="http://www.w3.org/2000/svg" xmlns:xlink="http://www.w3.org/1999/xlink" version="1.1" width="1080pt" height="477.75718pt" viewBox="0 0 1080 477.75718">
<g enable-background="new">
<clipPath id="cp0">
<path transform="matrix(1,0,0,-1,0,540)" d="M 0 .00001206994 L 1080 .00001206994 L 1080 540 L 0 540 Z "/>
</clipPath>
<g clip-path="url(#cp0)">
<path transform="matrix(1,0,0,-1,0,540)" d="M 0 .00001206994 L 1080 .00001206994 L 1080 540 L 0 540 Z " fill="#ffffff"/>
</g>
<clipPath id="cp1">
<path transform="matrix(1,0,0,-1,0,540)" d="M 0 0 L 1080 0 L 1080 540 L 0 540 Z "/>
</clipPath>
<g clip-path="url(#cp1)">
<path transform="matrix(1,0,0,-1,0,540)" d="M 0 .0000140816 L 1080 .0000140816 L 1080 540 L 0 540 Z " fill="#ffffff"/>
<path transform="matrix(.00007874016,0,0,.00007874016,411.7094,17.684327)" stroke-width="28575" stroke-linecap="butt" stroke-dasharray="114300,85725" stroke-miterlimit="8" stroke-linejoin="miter" fill="none" stroke="#7f7f7f" d="M 0 0 L 1 5575195 "/>
<path transform="matrix(1,0,0,-1,0,540)" d="M 155.0532 438.9475 L 924.94686 438.9475 L 924.94686 511.4126 L 155.0532 511.4126 Z " fill="#e2f0d9"/>
<path transform="matrix(.00007874016,0,0,.00007874016,155.0532,28.587403)" stroke-width="19050" stroke-linecap="butt" stroke-dasharray="76200,57150" stroke-linejoin="round" fill="none" stroke="#70ad47" d="M 0 0 L 9777650 0 L 9777650 920307 L 0 920307 Z "/>
<text fill="#385723" xml:space="preserve" transform="matrix(.24 0 -0 .24 783.7031 595.2)" font-size="100" font-family="TimesNewRomanPSMT"><tspan y="-2250" x="0 72.4 116.670009 144.27 188.54001 208.02 280.42 330.42 374.69 402.28999 452.28999 491.34999 518.94998">Data Analysis</tspan></text>
<path transform="matrix(1,0,0,-1,0,540)" d="M 331.2108 153.2654 C 331.2108 156.5792 333.8971 159.2655 337.2109 159.2655 L 456.3106 159.2655 C 459.6244 159.2655 462.3108 156.5792 462.3108 153.2654 L 462.3108 129.2657 C 462.3108 125.9519 459.6244 123.2655 456.3106 123.2655 L 337.2109 123.2655 C 333.8971 123.2655 331.2108 125.9519 331.2108 129.2657 Z " fill="#d9d9d9" fill-rule="evenodd"/>
<path transform="matrix(.00007874016,0,0,.00007874016,331.2108,380.7345)" stroke-width="12700" stroke-linecap="butt" stroke-miterlimit="8" stroke-linejoin="miter" fill="none" stroke="#000000" d="M 0 76202.12 C 0 34116.85 34116.74 0 76201.87 0 L 1588768 0 C 1630853 0 1664970 34116.85 1664970 76202.12 L 1664970 380997.9 C 1664970 423083.1 1630853 457200 1588768 457200 L 76201.87 457200 C 34116.74 457200 0 423083.1 0 380997.9 Z "/>
<text xml:space="preserve" transform="matrix(.24 0 -0 .24 361.0108 938.64)" font-size="75" font-family="TimesNewRomanPSMT"><tspan y="-2250" x="0 54.165006 108.33001 150.00002 168.75002 193.74753 214.58254 235.41754 268.74754">GDS files</tspan></text>
<text xml:space="preserve" transform="matrix(.24 0 -0 .24 369.7008 951.6)" font-size="41.66666" font-family="TimesNewRomanPSMT"><tspan y="-2250" x="0 14.062498 32.812498 53.64583 85.93749 106.77082 120.83332 139.58332 155.72914 171.87497 190.62497 211.4583">(compressed)</tspan></text>
<path transform="matrix(1,0,0,-1,0,540)" d="M 176.8741 383.7404 C 176.8741 386.7228 179.2918 389.1406 182.2742 389.1406 L 382.4227 389.1406 C 385.4051 389.1406 387.8228 386.7228 387.8228 383.7404 L 387.8228 362.1407 C 387.8228 359.1583 385.4051 356.7406 382.4227 356.7406 L 182.2742 356.7406 C 179.2918 356.7406 176.8741 359.1583 176.8741 362.1407 Z " fill="#4472c4" fill-rule="evenodd"/>
<path transform="matrix(.00007874016,0,0,.00007874016,176.8741,150.8594)" stroke-width="19050" stroke-linecap="butt" stroke-miterlimit="8" stroke-linejoin="miter" fill="none" stroke="#ffffff" d="M 0 68581.95 C 0 30705.19 30705.11 0 68581.78 0 L 2610467 0 C 2648344 0 2679049 30705.19 2679049 68581.95 L 2679049 342898 C 2679049 380774.8 2648344 411480 2610467 411480 L 68581.78 411480 C 30705.11 411480 0 380774.8 0 342898 Z "/>
<text fill="#ffffff" xml:space="preserve" transform="matrix(.24 0 -0 .24 202.3484 713.28)" font-size="75" font-family="TimesNewRomanPSMT"><tspan y="-2250" x="0 41.670007 62.50501 100.005008 137.505 158.34001 191.67002 241.67252 275.00254 295.83753 316.67253 362.50505 400.00505 437.50505 470.83506 495.83256 516.66757 575.00259 608.3326 645.8326">SingleCellExperiment</tspan></text>
<path transform="matrix(1,0,0,-1,0,540)" d="M 300.611 248.8906 C 300.611 251.8731 303.0287 254.2908 306.0111 254.2908 L 487.5105 254.2908 C 490.4929 254.2908 492.9106 251.8731 492.9106 248.8906 L 492.9106 227.2909 C 492.9106 224.3084 490.4929 221.8907 487.5105 221.8907 L 306.0111 221.8907 C 303.0287 221.8907 300.611 224.3084 300.611 227.2909 Z " fill="#b4c7e7" fill-rule="evenodd"/>
<path transform="matrix(.00007874016,0,0,.00007874016,300.611,285.7092)" stroke-width="12700" stroke-linecap="butt" stroke-miterlimit="8" stroke-linejoin="miter" fill="none" stroke="#4472c4" d="M 0 68581.95 C 0 30705.18 30704.99 0 68581.52 0 L 2373623 0 C 2411500 0 2442205 30705.18 2442205 68581.95 L 2442205 342899 C 2442205 380775.8 2411500 411481 2373623 411481 L 68581.52 411481 C 30704.99 411481 0 380775.8 0 342899 Z "/>
<text xml:space="preserve" transform="matrix(.24 0 -0 .24 364.7608 848.16006)" font-size="75" font-family="TimesNewRomanPSMT"><tspan y="-2250" x="0 41.670003 91.66501 145.86 170.87999 195.89998 229.24498">SCArray</tspan></text>
<path transform="matrix(1,0,0,-1,0,540)" d="M 192.2478 321.6928 C 192.2478 325.6693 195.4714 328.8929 199.4479 328.8929 L 365.2487 328.8929 C 369.2253 328.8929 372.4489 325.6693 372.4489 321.6928 L 372.4489 292.8931 C 372.4489 288.9165 369.2253 285.6929 365.2487 285.6929 L 199.4479 285.6929 C 195.4714 285.6929 192.2478 288.9165 192.2478 292.8931 Z " fill="#4472c4" fill-rule="evenodd"/>
<path transform="matrix(.00007874016,0,0,.00007874016,192.2478,211.10709)" stroke-width="19050" stroke-linecap="butt" stroke-miterlimit="8" stroke-linejoin="miter" fill="none" stroke="#ffffff" d="M 0 91442.08 C 0 40940.02 40940 0 91442.05 0 L 2197112 0 C 2247614 0 2288554 40940.02 2288554 91442.08 L 2288554 457197.9 C 2288554 507700 2247614 548640 2197112 548640 L 91442.05 548640 C 40940 548640 0 507700 0 457197.9 Z "/>
<text fill="#ffffff" xml:space="preserve" transform="matrix(.24 0 -0 .24 224.3508 772.8)" font-size="75" font-family="TimesNewRomanPSMT"><tspan y="-2250" x="0 41.670007 91.67251 129.17252 183.33753 237.50254 279.17256 345.84004 379.17 400.005 425.0025 445.8375">SC_GDSMatrix</tspan></text>
<text fill="#ffffff" xml:space="preserve" transform="matrix(.24 0 -0 .24 206.5358 786.96)" font-size="41.66666" font-family="TimesNewRomanPSMT"><tspan y="-2250" x="0 14.062498 44.249998 74.43749">(GDS</tspan></text>
<text fill="#ffffff" xml:space="preserve" transform="matrix(.24 0 -0 .24 229.9108 786.96)" font-size="41.66666" font-family="TimesNewRomanPSMT"><tspan y="-2250" x="0">-</tspan></text>
<text fill="#ffffff" xml:space="preserve" transform="matrix(.24 0 -0 .24 235.7858 786.96)" font-size="41.66666" font-family="TimesNewRomanPSMT"><tspan y="-2250" x="0 32.291666">&#x0026; </tspan></text>
<text fill="#ffffff" xml:space="preserve" transform="matrix(.24 0 -0 .24 246.0358 786.96)" font-size="41.66666" font-family="TimesNewRomanPSMT"><tspan y="-2250" x="0 16.145833">sc</tspan></text>
<text fill="#ffffff" xml:space="preserve" transform="matrix(.24 0 -0 .24 254.4108 786.96)" font-size="41.66666" font-family="TimesNewRomanPSMT"><tspan y="-2250" x="0">-</tspan></text>
<text fill="#ffffff" xml:space="preserve" transform="matrix(.24 0 -0 .24 260.2858 786.96)" font-size="41.66666" font-family="TimesNewRomanPSMT"><tspan y="-2250" x="0 16.145833 36.979166 55.729166 74.479167 85.9375 100 111.458339 130.20833">specific </tspan></text>
<text fill="#ffffff" xml:space="preserve" transform="matrix(.24 0 -0 .24 294.0358 786.96)" font-size="41.66666" font-family="TimesNewRomanPSMT"><tspan y="-2250" x="0 30.208333 48.95833 60.41666 79.16666 99.999988 118.749988 139.58332 176.56247 195.31247 206.7708 220.8333 232.29163">DelayedMatrix</tspan></text>
<text fill="#ffffff" xml:space="preserve" transform="matrix(.24 0 -0 .24 354.7858 786.96)" font-size="41.66666" font-family="TimesNewRomanPSMT"><tspan y="-2250" x="0">)</tspan></text>
<path transform="matrix(1,0,0,-1,0,540)" d="M 201.457 486.4102 C 201.457 489.3925 203.8747 491.8102 206.8571 491.8102 L 276.3416 491.8102 C 279.3239 491.8102 281.7416 489.3925 281.7416 486.4102 L 281.7416 464.8103 C 281.7416 461.8279 279.3239 459.4102 276.3416 459.4102 L 206.8571 459.4102 C 203.8747 459.4102 201.457 461.8279 201.457 464.8103 Z " fill="#b4c7e7" fill-rule="evenodd"/>
<path transform="matrix(.00007874016,0,0,.00007874016,201.457,48.18979)" stroke-width="12700" stroke-linecap="butt" stroke-miterlimit="8" stroke-linejoin="miter" fill="none" stroke="#4472c4" d="M 0 68580.93 C 0 30704.73 30704.73 0 68580.93 0 L 951034.1 0 C 988910.3 0 1019615 30704.73 1019615 68580.93 L 1019615 342899.1 C 1019615 380775.3 988910.3 411480 951034.1 411480 L 68580.93 411480 C 30704.73 411480 0 380775.3 0 342899.1 Z "/>
<text xml:space="preserve" transform="matrix(.24 0 -0 .24 220.5993 610.56)" font-size="75" font-family="TimesNewRomanPSMT"><tspan y="-2250" x="0 29.167504 62.535009 95.90251 116.74501 150.1125">scater</tspan></text>
<path transform="matrix(1,0,0,-1,0,540)" d="M 397.5108 180.6816 L 397.5109 159.2654 L 396.0109 159.2654 L 396.0108 180.6816 Z M 396.7608 180.6816 L 391.7608 176.6816 L 396.7608 186.6816 L 401.7608 176.6816 Z "/>
<text xml:space="preserve" transform="matrix(.24 0 -0 .24 321.311 612.24)" font-size="83.33333" font-family="TimesNewRomanPS" font-weight="bold"><tspan y="-2250" x="0 20.833333 41.666666 62.499998 83.33333">. . .</tspan></text>
<path transform="matrix(1,0,0,-1,0,540)" d="M 349.9608 213.6815 C 349.9608 216.6639 352.3785 219.0817 355.3609 219.0817 L 438.1606 219.0817 C 441.1431 219.0817 443.5608 216.6639 443.5608 213.6815 L 443.5608 192.0818 C 443.5608 189.0994 441.1431 186.6817 438.1606 186.6817 L 355.3609 186.6817 C 352.3785 186.6817 349.9608 189.0994 349.9608 192.0818 Z " fill="#b4c7e7" fill-rule="evenodd"/>
<path transform="matrix(.00007874016,0,0,.00007874016,349.9608,320.9183)" stroke-width="12700" stroke-linecap="butt" stroke-miterlimit="8" stroke-linejoin="miter" fill="none" stroke="#4472c4" d="M 0 68581.52 C 0 30704.99 30704.98 0 68581.5 0 L 1120138 0 C 1158015 0 1188720 30704.99 1188720 68581.52 L 1188720 342898.5 C 1188720 380775 1158015 411480 1120138 411480 L 68581.5 411480 C 30704.98 411480 0 380775 0 342898.5 Z "/>
<text xml:space="preserve" transform="matrix(.24 0 -0 .24 371.7608 883.2)" font-size="75" font-family="TimesNewRomanPSMT"><tspan y="-2250" x="0 37.5 75 104.1675 129.16501 187.50002">gdsfmt</tspan></text>
<path transform="matrix(1,0,0,-1,0,540)" d="M 788.5659 108.6747 L 913.4237 108.6747 L 913.4237 183.8105 L 788.5659 183.8105 Z " fill="#e7e6e6"/>
<path transform="matrix(.00007874016,0,0,.00007874016,788.5659,356.1895)" stroke-width="12700" stroke-linecap="butt" stroke-dasharray="50800,38100" stroke-miterlimit="8" stroke-linejoin="miter" fill="none" stroke="#787878" d="M 0 0 L 1585694 0 L 1585694 954225 L 0 954225 Z "/>
<path transform="matrix(1,0,0,-1,0,540)" d="M 796.7993 132.737 C 796.7993 134.3939 798.1425 135.7371 799.7995 135.7371 L 901.7992 135.7371 C 903.4561 135.7371 904.7993 134.3939 904.7993 132.737 L 904.7993 120.7372 C 904.7993 119.0803 903.4561 117.7371 901.7992 117.7371 L 799.7995 117.7371 C 798.1425 117.7371 796.7993 119.0803 796.7993 120.7372 Z " fill="#d9d9d9" fill-rule="evenodd"/>
<path transform="matrix(.00007874016,0,0,.00007874016,796.7993,404.26289)" stroke-width="12700" stroke-linecap="butt" stroke-miterlimit="8" stroke-linejoin="miter" fill="none" stroke="#000000" d="M 0 38101.5 C 0 17058.62 17058.62 0 38101.5 0 L 1333498 0 C 1354541 0 1371600 17058.62 1371600 38101.5 L 1371600 190498.5 C 1371600 211541.4 1354541 228600 1333498 228600 L 38101.5 228600 C 17058.62 228600 0 211541.4 0 190498.5 Z "/>
<text xml:space="preserve" transform="matrix(.24 0 -0 .24 830.6119 957.6)" font-size="45.83333" font-family="TimesNewRomanPSMT"><tspan y="-2250" x="0 15.102082 38.018747 60.93541 83.85207 96.35082 107.80916 122.91124 135.40999 147.90874">Input file</tspan></text>
<path transform="matrix(1,0,0,-1,0,540)" d="M 796.7993 153.0528 C 796.7993 154.7097 798.1425 156.0529 799.7995 156.0529 L 901.7992 156.0529 C 903.4561 156.0529 904.7993 154.7097 904.7993 153.0528 L 904.7993 141.053 C 904.7993 139.3961 903.4561 138.0529 901.7992 138.0529 L 799.7995 138.0529 C 798.1425 138.0529 796.7993 139.3961 796.7993 141.053 Z " fill="#b4c7e7" fill-rule="evenodd"/>
<path transform="matrix(.00007874016,0,0,.00007874016,796.7993,383.94709)" stroke-width="12700" stroke-linecap="butt" stroke-miterlimit="8" stroke-linejoin="miter" fill="none" stroke="#4472c4" d="M 0 38101.5 C 0 17058.62 17058.62 0 38101.5 0 L 1333498 0 C 1354541 0 1371600 17058.62 1371600 38101.5 L 1371600 190498.5 C 1371600 211541.4 1354541 228600 1333498 228600 L 38101.5 228600 C 17058.62 228600 0 211541.4 0 190498.5 Z "/>
<text xml:space="preserve" transform="matrix(.24 0 -0 .24 827.7368 937.44)" font-size="45.83333" font-family="TimesNewRomanPSMT"><tspan y="-2250" x="0 30.73125 42.189584 65.10625 85.41958 105.73291 128.64957 148.9629 171.87958">R package</tspan></text>
<path transform="matrix(1,0,0,-1,0,540)" d="M 796.7993 173.3686 C 796.7993 175.0255 798.1425 176.3687 799.7995 176.3687 L 901.7992 176.3687 C 903.4561 176.3687 904.7993 175.0255 904.7993 173.3686 L 904.7993 161.3689 C 904.7993 159.7119 903.4561 158.3687 901.7992 158.3687 L 799.7995 158.3687 C 798.1425 158.3687 796.7993 159.7119 796.7993 161.3689 Z " fill="#4472c4" fill-rule="evenodd"/>
<path transform="matrix(.00007874016,0,0,.00007874016,796.7993,363.6313)" stroke-width="19050" stroke-linecap="butt" stroke-miterlimit="8" stroke-linejoin="miter" fill="none" stroke="#ffffff" d="M 0 38101.5 C 0 17058.62 17058.62 0 38101.5 0 L 1333498 0 C 1354541 0 1371600 17058.62 1371600 38101.5 L 1371600 190498.5 C 1371600 211541.4 1354541 228600 1333498 228600 L 38101.5 228600 C 17058.62 228600 0 211541.4 0 190498.5 Z "/>
<text fill="#ffffff" xml:space="preserve" transform="matrix(.24 0 -0 .24 817.4869 917.04006)" font-size="45.83333" font-family="TimesNewRomanPSMT"><tspan y="-2250" x="0 30.73125 42.189584 65.10625 88.02291 100.52166 120.83499 141.14833 153.64708 165.10541 177.60416 189.06249 209.37581 221.87456 242.18788 259.8979">R object / class</tspan></text>
<path transform="matrix(1,0,0,-1,0,540)" d="M 331.9608 279.0887 L 331.9609 254.5221 L 330.4609 254.5221 L 330.4608 279.0887 Z M 331.2108 279.0887 L 326.2108 275.0886 L 331.2108 285.0887 L 336.2108 275.0887 Z "/>
<path transform="matrix(1,0,0,-1,0,540)" d="M 281.5985 350.7405 L 281.5984 328.8928 L 283.0984 328.8928 L 283.0985 350.7405 Z M 282.3485 350.7405 L 287.3485 346.7405 L 282.3485 356.7405 L 277.3485 346.7405 Z "/>
<path transform="matrix(1,0,0,-1,0,540)" d="M 245.258 454.5959 L 282.9972 389.5167 L 281.6996 388.7642 L 243.9604 453.8434 Z M 244.6092 454.2197 L 242.2904 448.2512 L 241.5993 459.4102 L 250.9411 453.2677 Z "/>
<path transform="matrix(1,0,0,-1,0,540)" d="M 329.7008 454.4469 L 326.1997 449.5744 L 327.4178 448.6991 L 330.919 453.5716 Z M 323.5738 445.9199 L 320.0726 441.0474 L 321.2908 440.1721 L 324.7919 445.0446 Z M 317.4468 437.3929 L 313.9456 432.5204 L 315.1638 431.6451 L 318.6649 436.5176 Z M 311.3198 428.8659 L 307.8186 423.9934 L 309.0367 423.1181 L 312.5379 427.9906 Z M 305.1927 420.3389 L 301.6916 415.4664 L 302.9097 414.5911 L 306.4109 419.4637 Z M 299.0657 411.8119 L 295.5646 406.9394 L 296.7827 406.0641 L 300.2839 410.9367 Z M 292.9387 403.285 L 289.4375 398.4124 L 290.6557 397.5371 L 294.1568 402.4097 Z M 286.8117 394.758 L 283.3105 389.8854 L 284.5287 389.0101 L 288.0298 393.8827 Z M 330.3099 454.0092 L 332.0362 447.8432 L 333.811 458.8818 L 323.9153 453.6785 Z " fill="#7f7f7f"/>
<path transform="matrix(1,0,0,-1,0,540)" d="M 434.2902 309.5032 C 434.2902 312.4856 436.7079 314.9033 439.6903 314.9033 L 567.3943 314.9033 C 570.3767 314.9033 572.7944 312.4856 572.7944 309.5032 L 572.7944 287.9033 C 572.7944 284.9209 570.3767 282.5032 567.3943 282.5032 L 439.6903 282.5032 C 436.7079 282.5032 434.2902 284.9209 434.2902 287.9033 Z " fill="#b4c7e7" fill-rule="evenodd"/>
<path transform="matrix(.00007874016,0,0,.00007874016,434.2902,225.09671)" stroke-width="12700" stroke-linecap="butt" stroke-miterlimit="8" stroke-linejoin="miter" fill="none" stroke="#4472c4" d="M 0 68580.81 C 0 30704.67 30704.64 0 68580.73 0 L 1690422 0 C 1728298 0 1759003 30704.67 1759003 68580.81 L 1759003 342900.2 C 1759003 380776.3 1728298 411481 1690422 411481 L 68580.73 411481 C 30704.64 411481 0 380776.3 0 342900.2 Z "/>
<text xml:space="preserve" transform="matrix(.24 0 -0 .24 459.2923 787.44)" font-size="75" font-family="TimesNewRomanPSMT"><tspan y="-2250" x="0 41.670007 91.67251 145.83751 170.83502 195.83254 229.16254 266.66255 285.41255 314.58003 347.91">SCArray.sat</tspan></text>
<path transform="matrix(1,0,0,-1,0,540)" d="M 465.7573 276.5033 L 465.7574 255.5834 L 464.2574 255.5834 L 464.2573 276.5033 Z M 465.0073 276.5033 L 460.0073 272.5033 L 465.0073 282.5033 L 470.0073 272.5033 Z "/>
<path transform="matrix(1,0,0,-1,0,540)" d="M 595.3273 216.0443 C 595.3273 219.0268 597.745 221.4445 600.7274 221.4445 L 737.0945 221.4445 C 740.0769 221.4445 742.4947 219.0268 742.4947 216.0443 L 742.4947 194.4446 C 742.4947 191.4622 740.0769 189.0444 737.0945 189.0444 L 600.7274 189.0444 C 597.745 189.0444 595.3273 191.4622 595.3273 194.4446 Z " fill="#b4c7e7" fill-rule="evenodd"/>
<path transform="matrix(.00007874016,0,0,.00007874016,595.3273,318.55549)" stroke-width="12700" stroke-linecap="butt" stroke-miterlimit="8" stroke-linejoin="miter" fill="none" stroke="#4472c4" d="M 0 68582.21 C 0 30705.3 30705.23 0 68582.06 0 L 1800444 0 C 1838321 0 1869026 30705.3 1869026 68582.21 L 1869026 342898.8 C 1869026 380775.7 1838321 411481 1800444 411481 L 68582.06 411481 C 30705.23 411481 0 380775.7 0 342898.8 Z "/>
<text xml:space="preserve" transform="matrix(.24 0 -0 .24 621.9109 881.04006)" font-size="75" font-family="TimesNewRomanPSMT"><tspan y="-2250" x="0 41.670007 75.00001 112.50001 137.49752 170.82752 191.66252 245.82753 283.3275 304.1625 337.49253 370.82255">SeuratObject</tspan></text>
<path transform="matrix(1,0,0,-1,0,540)" d="M 768.0801 348.7885 C 768.0801 351.7709 770.4978 354.1887 773.4802 354.1887 L 895.2828 354.1887 C 898.2652 354.1887 900.6829 351.7709 900.6829 348.7885 L 900.6829 327.1887 C 900.6829 324.2063 898.2652 321.7886 895.2828 321.7886 L 773.4802 321.7886 C 770.4978 321.7886 768.0801 324.2063 768.0801 327.1887 Z " fill="#b4c7e7" fill-rule="evenodd"/>
<path transform="matrix(.00007874016,0,0,.00007874016,768.0801,185.81131)" stroke-width="12700" stroke-linecap="butt" stroke-miterlimit="8" stroke-linejoin="miter" fill="none" stroke="#4472c4" d="M 0 68581.7 C 0 30705.07 30704.96 0 68581.45 0 L 1615475 0 C 1653351 0 1684056 30705.07 1684056 68581.7 L 1684056 342899.3 C 1684056 380775.9 1653351 411481 1615475 411481 L 68581.45 411481 C 30704.96 411481 0 380775.9 0 342899.3 Z "/>
<text xml:space="preserve" transform="matrix(.24 0 -0 .24 811.3815 748.32)" font-size="75" font-family="TimesNewRomanPSMT"><tspan y="-2250" x="0 41.670007 75.00001 112.50001 137.49752 170.82752">Seurat</tspan></text>
<path transform="matrix(1,0,0,-1,0,540)" d="M 434.29 352.7697 C 434.29 356.7462 437.5136 359.9698 441.4901 359.9698 L 565.5943 359.9698 C 569.5709 359.9698 572.7945 356.7462 572.7945 352.7697 L 572.7945 323.97 C 572.7945 319.9935 569.5709 316.7698 565.5943 316.7698 L 441.4901 316.7698 C 437.5136 316.7698 434.29 319.9935 434.29 323.97 Z " fill="#4472c4" fill-rule="evenodd"/>
<path transform="matrix(.00007874016,0,0,.00007874016,434.29,180.03022)" stroke-width="19050" stroke-linecap="butt" stroke-miterlimit="8" stroke-linejoin="miter" fill="none" stroke="#ffffff" d="M 0 91441.92 C 0 40939.94 40939.9 0 91441.81 0 L 1667565 0 C 1718067 0 1759007 40939.94 1759007 91441.92 L 1759007 457198.1 C 1759007 507700 1718067 548640 1667565 548640 L 91441.81 548640 C 40939.9 548640 0 507700 0 457198.1 Z "/>
<text fill="#ffffff" xml:space="preserve" transform="matrix(.24 0 -0 .24 449.5422 741.6)" font-size="75" font-family="TimesNewRomanPSMT"><tspan y="-2250" x="0 41.670007 91.67251 145.83751 170.83502 195.83254 229.16254 266.66255 320.82756 349.99507 379.16255 412.49253">SCArrayAssay</tspan></text>
<text fill="#ffffff" xml:space="preserve" transform="matrix(.24 0 -0 .24 459.3572 754.56)" font-size="41.66666" font-family="TimesNewRomanPSMT"><tspan y="-2250" x="0 14.062498 44.249998 74.43749">(GDS</tspan></text>
<text fill="#ffffff" xml:space="preserve" transform="matrix(.24 0 -0 .24 482.7322 754.56)" font-size="41.66666" font-family="TimesNewRomanPSMT"><tspan y="-2250" x="0">-</tspan></text>
<text fill="#ffffff" xml:space="preserve" transform="matrix(.24 0 -0 .24 486.1072 754.56)" font-size="41.66666" font-family="TimesNewRomanPSMT"><tspan y="-2250" x="0 16.145833 36.979166 55.729166 74.479167 85.9375 100 111.458339 130.20833 140.625 170.83333 186.97916 203.12499 221.87499 242.70832">specific Assay)</tspan></text>
<text xml:space="preserve" transform="matrix(.24 0 -0 .24 736.0147 752.88)" font-size="133.3333" font-family="TimesNewRomanPSMT"><tspan y="-2250" x="0">+</tspan></text>
<path transform="matrix(1,0,0,-1,0,540)" d="M 744.5014 453.4101 L 744.5015 355.4773 L 743.0015 355.4773 L 743.0014 453.4101 Z M 743.7514 453.4102 L 738.7514 449.4102 L 743.7514 459.4102 L 748.7514 449.4102 Z "/>
<path transform="matrix(1,0,0,-1,0,540)" d="M 433.9532 339.0399 L 429.9324 337.0193 L 430.6059 335.679 L 434.6267 337.6996 Z M 428.5921 336.3458 L 424.5712 334.3252 L 425.2448 332.9849 L 429.2656 335.0055 Z M 423.231 333.6517 L 419.2101 331.6311 L 419.8836 330.2908 L 423.9045 332.3114 Z M 417.8698 330.9575 L 413.849 328.9369 L 414.5225 327.5967 L 418.5434 329.6173 Z M 412.5087 328.2634 L 408.4879 326.2428 L 409.1614 324.9025 L 413.1822 326.9231 Z M 407.1476 325.5693 L 403.1267 323.5487 L 403.8003 322.2084 L 407.8211 324.229 Z M 401.7864 322.8752 L 397.7656 320.8546 L 398.4391 319.5143 L 402.46 321.5349 Z M 396.4253 320.181 L 392.4045 318.1605 L 393.078 316.8202 L 397.0988 318.8408 Z M 391.0642 317.4869 L 387.0433 315.4663 L 387.7169 314.126 L 391.7377 316.1466 Z M 385.7031 314.7928 L 381.6822 312.7722 L 382.3557 311.4319 L 386.3766 313.4525 Z M 380.3419 312.0987 L 376.3211 310.0781 L 376.9946 308.7378 L 381.0155 310.7584 Z M 374.9808 309.4045 L 372.1122 307.963 L 372.7857 306.6227 L 375.6543 308.0643 Z M 435.637 335.6892 C 437.1175 336.4332 437.7145 338.2364 436.9705 339.7168 C 436.2266 341.1973 434.4234 341.7943 432.9429 341.0503 C 431.4625 340.3064 430.8655 338.5031 431.6094 337.0227 C 432.3534 335.5423 434.1566 334.9452 435.637 335.6892 Z M 371.1019 309.9734 C 369.6215 309.2294 369.0244 307.4262 369.7684 305.9458 C 370.5124 304.4653 372.3156 303.8683 373.796 304.6123 C 375.2765 305.3562 375.8735 307.1595 375.1295 308.6399 C 374.3856 310.1203 372.5823 310.7174 371.1019 309.9734 Z " fill="#7f7f7f"/>
<text fill="#7b1a0f" xml:space="preserve" transform="matrix(.24 0 -0 .24 191.1991 983.28)" font-size="70.83333" font-family="TimesNewRomanPSMT"><tspan y="-2250" x="0 47.394586 67.18542 102.60208 133.85375 169.27042 204.68708 240.10373 275.5204 306.77207 326.5629 361.97956 385.4183 403.12666 442.7083 466.14707 497.39875 552.60629 583.858 634.90048 670.31716 693.7559">Bioconductor Framework</tspan></text>
<text fill="#7b1a0f" xml:space="preserve" transform="matrix(.24 0 -0 .24 457.0613 983.28)" font-size="70.83333" font-family="TimesNewRomanPSMT"><tspan y="-2250" x="0 39.58167 70.833339 106.25 129.68875 160.94042 180.73125 198.43958 238.02124 261.46 292.71168 347.91917 379.17085 430.21336 465.63 489.06877">Seurat Framework</tspan></text>
<path transform="matrix(1,0,0,-1,0,540)" d="M 613.3366 250.1834 C 613.3366 253.1658 615.7543 255.5835 618.7367 255.5835 L 715.0924 255.5835 C 718.0748 255.5835 720.4925 253.1658 720.4925 250.1834 L 720.4925 228.5836 C 720.4925 225.6012 718.0748 223.1835 715.0924 223.1835 L 618.7367 223.1835 C 615.7543 223.1835 613.3366 225.6012 613.3366 228.5836 Z " fill="#4472c4" fill-rule="evenodd"/>
<path transform="matrix(.00007874016,0,0,.00007874016,613.3366,284.4165)" stroke-width="19050" stroke-linecap="butt" stroke-miterlimit="8" stroke-linejoin="miter" fill="none" stroke="#ffffff" d="M 0 68581.49 C 0 30704.98 30704.88 0 68581.27 0 L 1292299 0 C 1330175 0 1360880 30704.98 1360880 68581.49 L 1360880 342898.5 C 1360880 380775 1330175 411480 1292299 411480 L 68581.27 411480 C 30704.88 411480 0 380775 0 342898.5 Z "/>
<text fill="#ffffff" xml:space="preserve" transform="matrix(.24 0 -0 .24 644.9146 846)" font-size="75" font-family="TimesNewRomanPSMT"><tspan y="-2250" x="0 54.165 83.355 112.545009 145.86002">Assay</tspan></text>
<path transform="matrix(.00007874016,0,0,.00007874016,580.919,171.0506)" stroke-width="19050" stroke-linecap="butt" stroke-dasharray="57150,19050" stroke-linejoin="round" fill="none" stroke="#7f7f7f" d="M 0 0 L 1758999 0 L 1758999 769441 L 0 769441 Z "/>
<text xml:space="preserve" transform="matrix(.24 0 -0 .24 588.119 725.76)" font-size="45.83333" font-family="TimesNewRomanPS" font-weight="bold"><tspan y="-2250" x="0 33.334585 53.647916 86.9825 98.44083 116.150829 128.64957 151.56623 166.6683 184.3783">New slots:</tspan></text>
<text xml:space="preserve" transform="matrix(.24 0 -0 .24 593.119 738.72)" font-size="45.83333" font-family="TimesNewRomanPSMT"><tspan y="-2250" x="0 20.313332 43.229997 66.14666 89.063327 101.56207 119.27207 142.18874 154.68749 166.14582 181.2479 201.56124 234.89582 246.35414 266.66749 289.58415 312.5008 335.41746 347.9162">counts2: raw counts</tspan></text>
<text xml:space="preserve" transform="matrix(.24 0 -0 .24 593.119 751.68)" font-size="45.83333" font-family="TimesNewRomanPSMT"><tspan y="-2250" x="0 22.916665 43.229997 55.72875 76.04208 98.95875 111.4575 122.91583 145.83249 168.74915 183.85123 219.26663 239.57997 252.07872 264.57746 284.8908 305.20417 328.12083 339.57917 362.49583 382.80918 395.30793">data2: normalized data</tspan></text>
<text xml:space="preserve" transform="matrix(.24 0 -0 .24 593.119 764.64)" font-size="45.83333" font-family="TimesNewRomanPSMT"><tspan y="-2250" x="0 17.71 38.02333 58.336664 70.83541 91.14874 102.60707 125.523738 145.83707 158.33582 178.64916 201.56583 214.06458 225.5229 243.2329 263.54624 283.8596 296.35835 316.6717 339.58836 351.0467 386.4621 406.77546 419.2742 434.37629 446.87504">scale.data2: scaled matrix</tspan></text>
<path transform="matrix(.00007874016,0,0,-.00007874016,572.7944,201.63019)" stroke-width="19050" stroke-linecap="butt" stroke-dasharray="57150,19050" stroke-miterlimit="8" stroke-linejoin="miter" fill="none" stroke="#7f7f7f" d="M 0 0 L 103182 3640 "/>
<path transform="matrix(1,0,0,-1,0,540)" d="M 828.6941 319.7357 L 703.9534 256.2519 L 704.6338 254.9151 L 829.3744 318.3989 Z M 829.0342 319.0673 L 827.7371 312.7969 L 834.3815 321.7887 L 823.2014 321.7091 Z "/>
<path transform="matrix(1,0,0,-1,0,540)" d="M 556.0311 280.132 L 630.7842 256.298 L 630.3285 254.8688 L 555.5755 278.7029 Z M 555.8031 279.4175 L 558.0953 273.4387 L 550.0867 281.2402 L 561.133 282.9662 Z "/>
</g>
</g>
</svg>
